<svg viewBox="0 0 1400 900" xmlns="http://www.w3.org/2000/svg">
  <!-- Background -->
  <rect x="0" y="0" width="1400" height="900" fill="#0f0f1e"/>
  
  <!-- Header -->
  <rect x="0" y="0" width="1400" height="70" fill="#1a1a2e" stroke="#444" stroke-width="1"/>
  <text x="50" y="45" font-size="20" font-weight="bold" fill="#6c5ce7">🎬 KHANLIX</text>
  
  <!-- Carousel Section -->
  <rect x="20" y="90" width="1360" height="150" fill="#2a2a3e" stroke="#6c5ce7" stroke-width="2" rx="6"/>
  <rect x="40" y="110" width="1320" height="110" fill="#16213e" rx="4"/>
  <text x="700" y="170" font-size="16" fill="#6c5ce7" text-anchor="middle" font-weight="bold">🎬 CAROUSEL QUẢNG CÁO (4 Slides)</text>
  <text x="700" y="190" font-size="11" fill="#999" text-anchor="middle">[◀ Slide 1/4 ▶]</text>
  
  <!-- Section Title: Trending -->
  <text x="40" y="280" font-size="14" fill="#6c5ce7" font-weight="bold">✨ Trending Hôm Nay (10 phim, 2 trang)</text>
  
  <!-- Movie Cards Grid - Row 1 -->
  <g id="movie-cards-1">
    <!-- Card 1 -->
    <rect x="20" y="310" width="320" height="420" fill="#1a1a2e" stroke="#6c5ce7" stroke-width="1" rx="6"/>
    <rect x="30" y="320" width="300" height="200" fill="#2a2a3e" stroke="#444" stroke-width="1" rx="4"/>
    <text x="180" y="415" font-size="10" fill="#999" text-anchor="middle">Poster Image</text>
    <text x="40" y="535" font-size="12" font-weight="bold" fill="#fff">Movie Title 1</text>
    <text x="40" y="555" font-size="11" fill="#bbb">⭐ 8.5 | 2024 | Hành Động</text>
    <rect x="30" y="575" width="280" height="35" fill="#6c5ce7" stroke="#6c5ce7" stroke-width="1" rx="3" opacity="0.8"/>
    <text x="170" y="598" font-size="12" fill="#fff" font-weight="bold" text-anchor="middle">❤️ Add to Favorites</text>
    
    <!-- Card 2 -->
    <rect x="360" y="310" width="320" height="420" fill="#1a1a2e" stroke="#6c5ce7" stroke-width="1" rx="6"/>
    <rect x="370" y="320" width="300" height="200" fill="#2a2a3e" stroke="#444" stroke-width="1" rx="4"/>
    <text x="520" y="415" font-size="10" fill="#999" text-anchor="middle">Poster Image</text>
    <text x="380" y="535" font-size="12" font-weight="bold" fill="#fff">Movie Title 2</text>
    <text x="380" y="555" font-size="11" fill="#bbb">⭐ 9.0 | 2023 | Hài Hước</text>
    <rect x="370" y="575" width="280" height="35" fill="#6c5ce7" stroke="#6c5ce7" stroke-width="1" rx="3" opacity="0.8"/>
    <text x="510" y="598" font-size="12" fill="#fff" font-weight="bold" text-anchor="middle">❤️ Add to Favorites</text>
    
    <!-- Card 3 -->
    <rect x="700" y="310" width="320" height="420" fill="#1a1a2e" stroke="#6c5ce7" stroke-width="1" rx="6"/>
    <rect x="710" y="320" width="300" height="200" fill="#2a2a3e" stroke="#444" stroke-width="1" rx="4"/>
    <text x="860" y="415" font-size="10" fill="#999" text-anchor="middle">Poster Image</text>
    <text x="720" y="535" font-size="12" font-weight="bold" fill="#fff">Movie Title 3</text>
    <text x="720" y="555" font-size="11" fill="#bbb">⭐ 7.8 | 2022 | Kinh Dị</text>
    <rect x="710" y="575" width="280" height="35" fill="#6c5ce7" stroke="#6c5ce7" stroke-width="1" rx="3" opacity="0.8"/>
    <text x="850" y="598" font-size="12" fill="#fff" font-weight="bold" text-anchor="middle">❤️ Add to Favorites</text>
    
    <!-- Card 4 -->
    <rect x="1040" y="310" width="320" height="420" fill="#1a1a2e" stroke="#6c5ce7" stroke-width="1" rx="6"/>
    <rect x="1050" y="320" width="300" height="200" fill="#2a2a3e" stroke="#444" stroke-width="1" rx="4"/>
    <text x="1200" y="415" font-size="10" fill="#999" text-anchor="middle">Poster Image</text>
    <text x="1060" y="535" font-size="12" font-weight="bold" fill="#fff">Movie Title 4</text>
    <text x="1060" y="555" font-size="11" fill="#bbb">⭐ 8.2 | 2024 | Tâm Lý</text>
    <rect x="1050" y="575" width="280" height="35" fill="#6c5ce7" stroke="#6c5ce7" stroke-width="1" rx="3" opacity="0.8"/>
    <text x="1190" y="598" font-size="12" fill="#fff" font-weight="bold" text-anchor="middle">❤️ Add to Favorites</text>
  </g>
  
  <!-- Pagination -->
  <text x="700" y="780" font-size="12" fill="#6c5ce7" text-anchor="middle" font-weight="bold">[◀ Prev] [1] [2] [Next ▶]</text>
  
  <!-- Similar Section Info -->
  <text x="40" y="830" font-size="12" fill="#999">(+ 3 danh mục tương tự: Phim Mới Cập Nhật, Phim Hot Hiện Tại, Phim Được Xem Nhiều)</text>
  
  <!-- Footer -->
  <text x="700" y="890" font-size="10" fill="#666" text-anchor="middle">Homepage - Browse Categories Mode (1400px × 900px)</text>
</svg>