<svg viewBox="0 0 1400 850" xmlns="http://www.w3.org/2000/svg">
  <!-- Background -->
  <rect x="0" y="0" width="1400" height="850" fill="#0f0f1e"/>
  
  <!-- Header -->
  <rect x="0" y="0" width="1400" height="70" fill="#1a1a2e" stroke="#444" stroke-width="1"/>
  <text x="50" y="45" font-size="20" font-weight="bold" fill="#6c5ce7">🎬 KHANLIX</text>
  
  <!-- Category Buttons Section -->
  <text x="40" y="110" font-size="13" font-weight="bold" fill="#6c5ce7">Lọc Theo Danh Mục:</text>
  
  <g id="category-buttons">
    <rect x="40" y="125" width="120" height="35" fill="#6c5ce7" stroke="#6c5ce7" stroke-width="1" rx="4"/>
    <text x="100" y="148" font-size="11" fill="#fff" font-weight="bold" text-anchor="middle">📌 Phim Mới</text>
    
    <rect x="180" y="125" width="120" height="35" fill="#2a2a3e" stroke="#6c5ce7" stroke-width="1" rx="4"/>
    <text x="240" y="148" font-size="11" fill="#6c5ce7" font-weight="bold" text-anchor="middle">Phim Hot</text>
    
    <rect x="320" y="125" width="140" height="35" fill="#2a2a3e" stroke="#6c5ce7" stroke-width="1" rx="4"/>
    <text x="390" y="148" font-size="11" fill="#6c5ce7" font-weight="bold" text-anchor="middle">Xem Nhiều</text>
    
    <rect x="480" y="125" width="120" height="35" fill="#2a2a3e" stroke="#6c5ce7" stroke-width="1" rx="4"/>
    <text x="540" y="148" font-size="11" fill="#6c5ce7" font-weight="bold" text-anchor="middle">Trending</text>
    
    <rect x="620" y="125" width="120" height="35" fill="#2a2a3e" stroke="#6c5ce7" stroke-width="1" rx="4"/>
    <text x="680" y="148" font-size="11" fill="#6c5ce7" font-weight="bold" text-anchor="middle">Lẻ Mới</text>
  </g>
  
  <!-- Results Header -->
  <rect x="40" y="180" width="1320" height="50" fill="#2a2a3e" stroke="#6c5ce7" stroke-width="1" rx="4"/>
  <text x="60" y="210" font-size="14" font-weight="bold" fill="#fff">Phim Hot Hiện Tại (10 phim)</text>
  <text x="1280" y="210" font-size="11" fill="#999" text-anchor="end">[← Quay Lại Danh Mục]</text>
  
  <!-- Movie Cards Grid - Row 1 -->
  <g id="movie-cards-1">
    <!-- Card 1 -->
    <rect x="20" y="260" width="320" height="380" fill="#1a1a2e" stroke="#6c5ce7" stroke-width="1" rx="6"/>
    <rect x="30" y="270" width="300" height="180" fill="#2a2a3e" stroke="#444" stroke-width="1" rx="4"/>
    <text x="180" y="350" font-size="10" fill="#999" text-anchor="middle">ID 11</text>
    <text x="40" y="470" font-size="12" font-weight="bold" fill="#fff">Title 1</text>
    <text x="40" y="490" font-size="11" fill="#bbb">⭐ 8.5 | 2024</text>
    <rect x="30" y="510" width="280" height="30" fill="#6c5ce7" stroke="#6c5ce7" stroke-width="1" rx="3" opacity="0.8"/>
    <text x="170" y="530" font-size="12" fill="#fff" font-weight="bold" text-anchor="middle">❤️ Favorites</text>
    
    <!-- Card 2 -->
    <rect x="360" y="260" width="320" height="380" fill="#1a1a2e" stroke="#6c5ce7" stroke-width="1" rx="6"/>
    <rect x="370" y="270" width="300" height="180" fill="#2a2a3e" stroke="#444" stroke-width="1" rx="4"/>
    <text x="520" y="350" font-size="10" fill="#999" text-anchor="middle">ID 12</text>
    <text x="380" y="470" font-size="12" font-weight="bold" fill="#fff">Title 2</text>
    <text x="380" y="490" font-size="11" fill="#bbb">⭐ 9.0 | 2023</text>
    <rect x="370" y="510" width="280" height="30" fill="#6c5ce7" stroke="#6c5ce7" stroke-width="1" rx="3" opacity="0.8"/>
    <text x="510" y="530" font-size="12" fill="#fff" font-weight="bold" text-anchor="middle">❤️ Favorites</text>
    
    <!-- Card 3 -->
    <rect x="700" y="260" width="320" height="380" fill="#1a1a2e" stroke="#6c5ce7" stroke-width="1" rx="6"/>
    <rect x="710" y="270" width="300" height="180" fill="#2a2a3e" stroke="#444" stroke-width="1" rx="4"/>
    <text x="860" y="350" font-size="10" fill="#999" text-anchor="middle">ID 13</text>
    <text x="720" y="470" font-size="12" font-weight="bold" fill="#fff">Title 3</text>
    <text x="720" y="490" font-size="11" fill="#bbb">⭐ 7.8 | 2022</text>
    <rect x="710" y="510" width="280" height="30" fill="#6c5ce7" stroke="#6c5ce7" stroke-width="1" rx="3" opacity="0.8"/>
    <text x="850" y="530" font-size="12" fill="#fff" font-weight="bold" text-anchor="middle">❤️ Favorites</text>
    
    <!-- Card 4 -->
    <rect x="1040" y="260" width="320" height="380" fill="#1a1a2e" stroke="#6c5ce7" stroke-width="1" rx="6"/>
    <rect x="1050" y="270" width="300" height="180" fill="#2a2a3e" stroke="#444" stroke-width="1" rx="4"/>
    <text x="1200" y="350" font-size="10" fill="#999" text-anchor="middle">ID 14</text>
    <text x="1060" y="470" font-size="12" font-weight="bold" fill="#fff">Title 4</text>
    <text x="1060" y="490" font-size="11" fill="#bbb">⭐ 8.2 | 2024</text>
    <rect x="1050" y="510" width="280" height="30" fill="#6c5ce7" stroke="#6c5ce7" stroke-width="1" rx="3" opacity="0.8"/>
    <text x="1190" y="530" font-size="12" fill="#fff" font-weight="bold" text-anchor="middle">❤️ Favorites</text>
  </g>
  
  <!-- Pagination -->
  <text x="700" y="700" font-size="12" fill="#6c5ce7" text-anchor="middle" font-weight="bold">[◀ Prev] [1] [Next ▶]  (Phân trang 16 phim/trang)</text>
  
  <!-- Footer -->
  <text x="700" y="840" font-size="10" fill="#666" text-anchor="middle">Category Filter Mode (1400px × 850px)</text>
</svg>